<?xml version="1.0" encoding="UTF-8"?>
<svg width="176px" height="160px" viewBox="0 0 176 160" version="1.1" xmlns="http://www.w3.org/2000/svg" xmlns:xlink="http://www.w3.org/1999/xlink">
    <!-- Generator: Sketch 54.1 (76490) - https://sketchapp.com -->
    <title>footer-fly-object</title>
    <desc>Created with Sketch.</desc>
    <g id="footer-fly-object" stroke="none" stroke-width="1" fill="none" fill-rule="evenodd">
        <path d="M59.7228138,19 L15,94.6213109 L92.9202261,141 L99.6491672,129.629685 L106.847115,138.762967 L118.316062,129.668892 L121.633849,140.965148 L161,129.322555 L153.018203,102.151422 L157.688727,98.4462676 L135.067847,69.7394883 L137.645211,65.3743327 L126.3174,58.6349158 L116.151249,45.7289543 L111.215824,49.6453963 L59.7228138,19 Z M29,91.665593 L63.4699644,33 L103,56.6806553 L65.4996612,86.6089354 L93.185075,121.97692 L89.6489114,128 L29,91.665593 Z M76,87.0353548 L109.237984,60 L123,68.4011785 L96.7106634,114 L76,87.0353548 Z M129.69033,76 L141,90.0547337 L117,97 L129.69033,76 Z M116,103.939445 L144.925025,95 L145.460354,95.713073 L146,97.6417657 L120.235142,119 L116,103.939445 Z M123,126.651747 L149.047729,106 L155,126.262133 L125.450293,135 L123,126.651747 Z M103,123.421646 L111.178193,109 L115,122.56257 L107.214119,129 L103,123.421646 Z" id="Fill-1" fill="#F1DB2E" transform="translate(88.000000, 80.000000) rotate(17.000000) translate(-88.000000, -80.000000) "></path>
    </g>
</svg>