<?xml version="1.0" encoding="UTF-8"?>
<svg width="250px" height="55px" viewBox="0 0 250 55" version="1.1" xmlns="http://www.w3.org/2000/svg" xmlns:xlink="http://www.w3.org/1999/xlink">
    <!-- Generator: Sketch 54.1 (76490) - https://sketchapp.com -->
    <title>logo</title>
    <desc>Created with Sketch.</desc>
    <g id="logo" stroke="none" stroke-width="1" fill="none" fill-rule="evenodd">
        <g transform="translate(0.000000, 0.000000)">
            <path d="M20.0567087,0 L0,33.8210065 L34.9446545,54.5634921 L37.962363,49.4782124 L41.1904054,53.5629974 L46.3338503,49.4957478 L47.8217685,54.547905 L65.4761905,49.3408514 L61.8966177,37.1887866 L63.9911936,35.5316868 L53.8464739,22.6928169 L55.002337,20.7405372 L49.922187,17.7263886 L45.3630032,11.954304 L43.1496275,13.7059003 L20.0567087,0 Z M6.25840982,32.2233324 L21.6546628,6.262103 L39.3110323,16.741481 L22.5612412,29.9856146 L34.9271267,45.6369753 L33.3476743,48.3023633 L6.25840982,32.2233324 Z M27.4300834,30.5555166 L42.5030452,18.6362835 L48.7439272,22.3401596 L36.8220801,42.4435755 L27.4300834,30.5555166 Z M51.953468,25.8852425 L56.8271791,32.0557715 L46.4847844,35.1049909 L51.953468,25.8852425 Z M45.3367114,37.872669 L58.3852086,34.0255867 L58.6267032,34.3324571 L58.8701453,35.1624682 L47.2472451,44.3539651 L45.3367114,37.872669 Z M48.3028101,47.9380156 L59.9276579,38.7465188 L62.5840982,47.7646095 L49.3963521,51.653582 L48.3028101,47.9380156 Z M39.8563426,46.2838385 L43.5508201,40.0529096 L45.2773115,45.9126715 L41.7600599,48.6939882 L39.8563426,46.2838385 Z" id="Fill-1" fill="#F1DB2E"></path>
            <g id="Group-48" transform="translate(77.380952, 10.912698)">
                <path d="M2.99781746,0.456448413 L28.3172283,0.456448413 C29.5255616,0.456448413 30.5134887,1.46140873 30.5134887,2.68958333 C30.5134887,3.91875 29.5255616,4.92371032 28.3172283,4.92371032 L4.95416667,4.92371032 L4.95416667,15.7699405 L28.3172283,15.7699405 C29.5255616,15.7699405 30.5134887,16.7749008 30.5134887,18.0030754 C30.5134887,19.2322421 29.5255616,20.2372024 28.3172283,20.2372024 L2.99781746,20.2372024 C2.97733723,20.2372024 2.95685701,20.2362103 2.93735203,20.2362103 C2.91687181,20.2362103 2.89736683,20.2372024 2.87786185,20.2372024 C1.73584544,20.2372024 0.802532284,19.2868056 0.802532284,18.1260913 L0.802532284,18.0030754 L0.802532284,2.68958333 L0.802532284,2.56755952 C0.802532284,1.40684524 1.73584544,0.456448413 2.87786185,0.456448413 C2.89736683,0.456448413 2.91687181,0.456448413 2.93735203,0.457440476 C2.95685701,0.456448413 2.97733723,0.456448413 2.99781746,0.456448413" id="Fill-2" fill="#FEFEFE"></path>
                <path d="M2.99781746,0.456448413 L28.3172283,0.456448413 C29.5255616,0.456448413 30.5134887,1.46140873 30.5134887,2.68958333 C30.5134887,3.91875 29.5255616,4.92371032 28.3172283,4.92371032 L4.95416667,4.92371032 L4.95416667,15.7699405 L28.3172283,15.7699405 C29.5255616,15.7699405 30.5134887,16.7749008 30.5134887,18.0030754 C30.5134887,19.2322421 29.5255616,20.2372024 28.3172283,20.2372024 L2.99781746,20.2372024 C2.97733723,20.2372024 2.95685701,20.2362103 2.93735203,20.2362103 C2.91687181,20.2362103 2.89736683,20.2372024 2.87786185,20.2372024 C1.73584544,20.2372024 0.802532284,19.2868056 0.802532284,18.1260913 L0.802532284,18.0030754 L0.802532284,2.68958333 L0.802532284,2.56755952 C0.802532284,1.40684524 1.73584544,0.456448413 2.87786185,0.456448413 C2.89736683,0.456448413 2.91687181,0.456448413 2.93735203,0.457440476 C2.95685701,0.456448413 2.97733723,0.456448413 2.99781746,0.456448413" id="Fill-4" fill="#FEFEFE"></path>
                <path d="M34.4833367,2.40863095 L34.4833367,6.90763889 C34.4833367,8.06934524 35.4176251,9.01974206 36.5596415,9.01974206 C37.7016579,9.01974206 38.6359463,8.06934524 38.6359463,6.90763889 L38.6359463,2.40863095 C38.6359463,1.2469246 37.7016579,0.296527778 36.5596415,0.296527778 C35.4176251,0.296527778 34.4833367,1.2469246 34.4833367,2.40863095" id="Fill-6" fill="#FEFEFE"></path>
                <path d="M34.4833367,2.40863095 L34.4833367,6.90763889 C34.4833367,8.06934524 35.4176251,9.01974206 36.5596415,9.01974206 C37.7016579,9.01974206 38.6359463,8.06934524 38.6359463,6.90763889 L38.6359463,2.40863095 C38.6359463,1.2469246 37.7016579,0.296527778 36.5596415,0.296527778 C35.4176251,0.296527778 34.4833367,1.2469246 34.4833367,2.40863095" id="Fill-8" fill="#F1DB2E"></path>
                <path d="M34.4833367,13.625496 L34.4833367,18.125496 C34.4833367,19.2872024 35.4176251,20.2375992 36.5596415,20.2375992 C37.7016579,20.2375992 38.6359463,19.2872024 38.6359463,18.125496 L38.6359463,13.625496 C38.6359463,12.4637897 37.7016579,11.5143849 36.5596415,11.5143849 C35.4176251,11.5143849 34.4833367,12.4637897 34.4833367,13.625496" id="Fill-10" fill="#FEFEFE"></path>
                <path d="M44.8015671,0.456448413 L70.1209779,0.456448413 C70.1414582,0.456448413 70.1619384,0.456448413 70.1824186,0.457440476 C70.2019236,0.456448413 70.2214286,0.456448413 70.2409335,0.456448413 C71.38295,0.456448413 72.3172384,1.40684524 72.3172384,2.56755952 L72.3172384,2.68958333 L72.3172384,18.1260913 C72.3172384,19.2868056 71.38295,20.2372024 70.2409335,20.2372024 C69.0998924,20.2372024 68.165604,19.2868056 68.165604,18.1260913 L68.165604,4.92371032 L46.7569411,4.92371032 L46.7569411,18.1260913 C46.7569411,19.2868056 45.8226527,20.2372024 44.6816115,20.2372024 C43.5395951,20.2372024 42.6053067,19.2868056 42.6053067,18.1260913 L42.6053067,2.68958333 L42.6053067,2.56755952 C42.6053067,1.40684524 43.5395951,0.456448413 44.6816115,0.456448413 C44.7011165,0.456448413 44.7206215,0.456448413 44.7411017,0.457440476 C44.7606067,0.456448413 44.7810869,0.456448413 44.8015671,0.456448413" id="Fill-12" fill="#FEFEFE"></path>
                <path d="M75.9395077,18.1255952 L75.9395077,2.56706349 C75.9395077,1.40634921 76.8737961,0.455952381 78.0158125,0.455952381 L103.422996,0.455952381 L103.476634,0.455952381 C103.494189,0.456944444 103.512719,0.457936508 103.530273,0.457936508 C103.547828,0.458928571 103.565382,0.460912698 103.581961,0.461904762 C103.600491,0.462896825 103.61707,0.464880952 103.634625,0.466865079 C103.653154,0.468849206 103.669734,0.470833333 103.687288,0.47281746 C103.703867,0.475793651 103.721422,0.477777778 103.738001,0.480753968 L103.789689,0.48968254 C103.807244,0.49265873 103.823823,0.495634921 103.840402,0.498611111 C103.856981,0.502579365 103.874536,0.506547619 103.891115,0.510515873 C103.907694,0.514484127 103.924274,0.518452381 103.939878,0.522420635 C103.957432,0.527380952 103.974011,0.53234127 103.989615,0.537301587 C104.00717,0.541269841 104.022774,0.546230159 104.039353,0.551190476 C104.055932,0.556150794 104.071536,0.562103175 104.088115,0.568055556 C104.102744,0.573015873 104.119323,0.578968254 104.135903,0.583928571 C104.151507,0.590873016 104.167111,0.596825397 104.182715,0.602777778 C104.198319,0.609722222 104.213923,0.616666667 104.229526,0.622619048 L104.275363,0.643452381 C104.290967,0.650396825 104.305596,0.658333333 104.3212,0.664285714 L104.367037,0.688095238 C104.381665,0.696031746 104.396294,0.70297619 104.410923,0.711904762 C104.425552,0.71984127 104.44018,0.728769841 104.454809,0.736706349 L104.49772,0.7625 C104.511373,0.771428571 104.526002,0.781349206 104.540631,0.789285714 C104.554284,0.799206349 104.567938,0.808134921 104.582567,0.818055556 C104.595245,0.826984127 104.609874,0.836904762 104.623527,0.846825397 C104.636205,0.856746032 104.649859,0.86765873 104.663512,0.876587302 C104.67619,0.8875 104.689844,0.897420635 104.703497,0.908333333 C104.716176,0.918253968 104.728854,0.929166667 104.742507,0.940079365 C104.75421,0.950992063 104.767864,0.960912698 104.780542,0.97281746 C104.792245,0.983730159 104.804923,0.994642857 104.817602,1.00654762 C104.83028,1.01746032 104.841983,1.02936508 104.853686,1.04027778 C104.866364,1.05218254 104.878067,1.06507937 104.88977,1.07599206 C104.901473,1.08789683 104.912201,1.10079365 104.923904,1.11269841 L104.958037,1.15039683 C104.96974,1.16230159 104.981443,1.17519841 104.992171,1.18809524 C105.001924,1.2 105.013627,1.21289683 105.024354,1.22678571 C105.034107,1.23968254 105.044835,1.25257937 105.055562,1.26646825 C105.06629,1.27936508 105.075067,1.2922619 105.085795,1.30615079 C105.095547,1.32003968 105.1053,1.33293651 105.116028,1.34781746 C105.124805,1.36170635 105.134557,1.37460317 105.14431,1.38948413 C105.153087,1.40337302 105.161864,1.4172619 105.170642,1.43214286 C105.180394,1.44603175 105.189171,1.45992063 105.196973,1.47480159 C105.206726,1.48869048 105.215503,1.50357143 105.223305,1.51944444 C105.232082,1.53333333 105.239884,1.54821429 105.247686,1.5640873 C105.255488,1.57797619 105.264266,1.59384921 105.272068,1.60873016 C105.278894,1.62361111 105.286696,1.63948413 105.293523,1.65436508 C105.301325,1.66924603 105.309127,1.68511905 105.315954,1.7 C105.321805,1.71686508 105.328632,1.7327381 105.335459,1.74761905 C105.342285,1.76349206 105.349112,1.77936508 105.354964,1.7952381 C105.360815,1.81210317 105.366667,1.82698413 105.372518,1.84384921 C105.37837,1.85972222 105.384221,1.87559524 105.390073,1.89246032 C105.395924,1.90833333 105.399825,1.92519841 105.405677,1.94206349 L105.420305,1.9906746 C105.425182,2.00853175 105.430058,2.02539683 105.433959,2.04126984 C105.438835,2.05912698 105.441761,2.075 105.445662,2.09285714 C105.449563,2.10873016 105.453464,2.1265873 105.457365,2.14444444 C105.460291,2.16031746 105.464192,2.1781746 105.467117,2.19503968 L105.475895,2.24761905 C105.47882,2.26547619 105.480771,2.28234127 105.482721,2.30019841 L105.488573,2.35277778 C105.490523,2.37063492 105.491499,2.38849206 105.493449,2.40535714 C105.494424,2.42420635 105.4954,2.44107143 105.496375,2.45992063 C105.49735,2.47777778 105.498325,2.49563492 105.498325,2.51349206 C105.499301,2.53134921 105.499301,2.55019841 105.499301,2.56706349 L105.499301,10.3468254 C105.499301,11.5075397 104.565012,12.4579365 103.422996,12.4579365 L80.0911421,12.4579365 L80.0911421,16.0134921 L103.422996,16.0134921 C104.565012,16.0134921 105.499301,16.9638889 105.499301,18.1255952 C105.499301,19.2873016 104.565012,20.2376984 103.422996,20.2376984 L78.0158125,20.2376984 C77.9972828,20.2376984 77.9797283,20.2367063 77.9621738,20.2367063 C77.9446193,20.2357143 77.9270648,20.2357143 77.9095104,20.2347222 C77.8909806,20.2337302 77.8734262,20.2327381 77.8558717,20.230754 C77.8392924,20.2297619 77.821738,20.2277778 77.8041835,20.2257937 C77.786629,20.2238095 77.7690745,20.2218254 77.75152,20.2198413 C77.7349408,20.2178571 77.7173863,20.214881 77.7008071,20.2128968 C77.6832526,20.2109127 77.6666734,20.2079365 77.6491189,20.2039683 C77.6325397,20.2009921 77.6149852,20.1980159 77.598406,20.1940476 C77.5818267,20.1900794 77.5652475,20.1871032 77.547693,20.1831349 C77.5311138,20.1781746 77.5145346,20.1742063 77.4979553,20.1712302 C77.4823514,20.1662698 77.4647969,20.1613095 77.4491929,20.1573413 C77.4326137,20.152381 77.4160344,20.1464286 77.4004305,20.1414683 C77.3838512,20.1365079 77.367272,20.1305556 77.351668,20.1255952 C77.336064,20.1206349 77.3194848,20.1146825 77.3038808,20.1087302 C77.2873016,20.1027778 77.2716976,20.0958333 77.2560936,20.089881 C77.2404896,20.0839286 77.2248857,20.0769841 77.2092817,20.0710317 C77.1936777,20.0640873 77.179049,20.0571429 77.163445,20.0492063 C77.147841,20.043254 77.1332123,20.0353175 77.1176083,20.028373 C77.1020043,20.0204365 77.0873756,20.0125 77.0727468,20.0055556 C77.0571429,19.997619 77.0425141,19.9896825 77.0278854,19.980754 C77.0132567,19.9728175 76.9986279,19.964881 76.9839992,19.9569444 C76.9703457,19.9480159 76.955717,19.9390873 76.9410882,19.9301587 C76.9264595,19.9222222 76.912806,19.9123016 76.8981773,19.903373 C76.8845238,19.8934524 76.8708703,19.8845238 76.8562416,19.8755952 C76.8425881,19.8656746 76.8299099,19.855754 76.8152811,19.8458333 C76.8026029,19.8369048 76.7889494,19.8269841 76.7752959,19.8160714 C76.7616425,19.8061508 76.7489642,19.7962302 76.7353107,19.7853175 L76.697276,19.7535714 C76.6845978,19.7426587 76.6709443,19.731746 76.6592413,19.7198413 C76.6465631,19.7099206 76.6338849,19.6980159 76.6212066,19.6871032 C76.6095036,19.6751984 76.5968254,19.6642857 76.5851224,19.652381 C76.5724442,19.6404762 76.5607412,19.6295635 76.5490382,19.6166667 C76.5373352,19.6047619 76.5256322,19.5928571 76.5139292,19.5809524 C76.5032015,19.5680556 76.4914985,19.5551587 76.4807708,19.543254 C76.4690678,19.5313492 76.4583401,19.5174603 76.4476123,19.5055556 L76.4154291,19.4668651 C76.4047014,19.4539683 76.3939736,19.4400794 76.3842211,19.4271825 C76.3734934,19.4142857 76.3637409,19.4003968 76.3530132,19.3865079 C76.3432607,19.3736111 76.3335082,19.3597222 76.3237557,19.3448413 C76.3140032,19.3319444 76.305226,19.3180556 76.2954735,19.3031746 C76.285721,19.2902778 76.2769438,19.2753968 76.2671913,19.2615079 C76.258414,19.247619 76.2496368,19.2327381 76.2408596,19.2188492 C76.2320823,19.2039683 76.2242803,19.1890873 76.2155031,19.1751984 C76.2067259,19.1593254 76.1989239,19.1444444 76.1911219,19.1305556 C76.1833199,19.1146825 76.1755179,19.0998016 76.1677159,19.0849206 L76.1452852,19.0392857 C76.1374832,19.0234127 76.1306564,19.0085317 76.1238297,18.9926587 C76.117003,18.9767857 76.1101762,18.9609127 76.1033495,18.9450397 C76.0965227,18.9301587 76.0906712,18.9132937 76.0838445,18.8974206 C76.077993,18.8825397 76.0721415,18.8656746 76.06629,18.8488095 C76.0604385,18.8339286 76.054587,18.8170635 76.0487355,18.8011905 L76.0331316,18.7515873 C76.0282553,18.7347222 76.0233791,18.7188492 76.0185028,18.7019841 C76.0136266,18.685119 76.0097256,18.668254 76.0048493,18.6513889 C76.0009483,18.6345238 75.9970474,18.6176587 75.9931464,18.6007937 C75.9892454,18.5839286 75.9853444,18.5660714 75.9814434,18.5501984 L75.9716909,18.497619 C75.9687651,18.480754 75.9658394,18.4638889 75.9629136,18.4460317 C75.9609631,18.4291667 75.9590126,18.4113095 75.9560869,18.3934524 C75.9541364,18.3755952 75.9521859,18.3577381 75.9502354,18.340873 C75.9482849,18.3230159 75.9473097,18.3051587 75.9453592,18.2873016 C75.9443839,18.2694444 75.9434087,18.2515873 75.9424334,18.2337302 C75.9414582,18.215873 75.9404829,18.1970238 75.9395077,18.1801587 L75.9395077,18.1255952 L75.9395077,18.1255952 Z M80.0911421,8.23472222 L101.347666,8.23472222 L101.347666,4.67916667 L80.0911421,4.67916667 L80.0911421,8.23472222 Z" id="Fill-14" fill="#FEFEFE"></path>
                <path d="M144.766525,0.456448413 L144.766525,0.456448413 L170.174684,0.456448413 C171.3167,0.456448413 172.250989,1.40684524 172.250989,2.56755952 C172.250989,3.72926587 171.3167,4.6796627 170.174684,4.6796627 L146.84283,4.6796627 L146.84283,7.90882937 L170.174684,7.90882937 C171.3167,7.90882937 172.250989,8.85922619 172.250989,10.0209325 L172.250989,18.0824405 C172.250989,19.2431548 171.3167,20.1945437 170.174684,20.1945437 L144.766525,20.1945437 C143.624509,20.1945437 142.690221,19.2431548 142.690221,18.0824405 C142.690221,16.9207341 143.624509,15.9703373 144.766525,15.9703373 L168.098379,15.9703373 L168.098379,12.1320437 L144.766525,12.1320437 C143.624509,12.1320437 142.690221,11.1816468 142.690221,10.0209325 L142.690221,2.56755952 C142.690221,1.40684524 143.624509,0.456448413 144.766525,0.456448413" id="Fill-16" fill="#F1DB2E"></path>
                <path d="M144.766525,0.456448413 L144.766525,0.456448413 L170.174684,0.456448413 C171.3167,0.456448413 172.250989,1.40684524 172.250989,2.56755952 C172.250989,3.72926587 171.3167,4.6796627 170.174684,4.6796627 L146.84283,4.6796627 L146.84283,7.90882937 L170.174684,7.90882937 C171.3167,7.90882937 172.250989,8.85922619 172.250989,10.0209325 L172.250989,18.0824405 C172.250989,19.2431548 171.3167,20.1945437 170.174684,20.1945437 L144.766525,20.1945437 C143.624509,20.1945437 142.690221,19.2431548 142.690221,18.0824405 C142.690221,16.9207341 143.624509,15.9703373 144.766525,15.9703373 L168.098379,15.9703373 L168.098379,12.1320437 L144.766525,12.1320437 C143.624509,12.1320437 142.690221,11.1816468 142.690221,10.0209325 L142.690221,2.56755952 C142.690221,1.40684524 143.624509,0.456448413 144.766525,0.456448413" id="Fill-18" fill="#F1DB2E"></path>
                <path d="M134.525437,18.1255952 L134.525437,4.92321429 L113.11775,4.92321429 L113.11775,18.1255952 C113.11775,19.2873016 112.183461,20.2376984 111.041445,20.2376984 C109.899428,20.2376984 108.966115,19.2873016 108.966115,18.1255952 L108.966115,2.6890873 L108.966115,2.56706349 C108.966115,1.40634921 109.899428,0.455952381 111.041445,0.455952381 C111.06095,0.455952381 111.08143,0.455952381 111.09996,0.456944444 C111.121415,0.455952381 111.14092,0.455952381 111.1614,0.455952381 L136.481786,0.455952381 C136.501291,0.455952381 136.522747,0.455952381 136.542252,0.456944444 C136.562732,0.455952381 136.581262,0.455952381 136.601742,0.455952381 C137.743758,0.455952381 138.678047,1.40634921 138.678047,2.56706349 L138.678047,2.6890873 L138.678047,18.1255952 C138.678047,19.2873016 137.743758,20.2376984 136.601742,20.2376984 C135.459726,20.2376984 134.525437,19.2873016 134.525437,18.1255952" id="Fill-20" fill="#F1DB2E"></path>
                <path d="M134.525437,18.1255952 L134.525437,4.92321429 L113.11775,4.92321429 L113.11775,18.1255952 C113.11775,19.2873016 112.183461,20.2376984 111.041445,20.2376984 C109.899428,20.2376984 108.966115,19.2873016 108.966115,18.1255952 L108.966115,2.6890873 L108.966115,2.56706349 C108.966115,1.40634921 109.899428,0.455952381 111.041445,0.455952381 C111.06095,0.455952381 111.08143,0.455952381 111.09996,0.456944444 C111.121415,0.455952381 111.14092,0.455952381 111.1614,0.455952381 L136.481786,0.455952381 C136.501291,0.455952381 136.522747,0.455952381 136.542252,0.456944444 C136.562732,0.455952381 136.581262,0.455952381 136.601742,0.455952381 C137.743758,0.455952381 138.678047,1.40634921 138.678047,2.56706349 L138.678047,2.6890873 L138.678047,18.1255952 C138.678047,19.2873016 137.743758,20.2376984 136.601742,20.2376984 C135.459726,20.2376984 134.525437,19.2873016 134.525437,18.1255952" id="Fill-22" fill="#F1DB2E"></path>
                <path d="M1.8763788,24.9480159 L1.8763788,24.9480159 L12.787463,24.9480159 C13.2770379,24.9480159 13.6788405,25.356746 13.6788405,25.8547619 C13.6788405,26.3537698 13.2770379,26.7625 12.787463,26.7625 L2.76775626,26.7625 L2.76775626,28.1484127 L12.787463,28.1484127 C13.2770379,28.1484127 13.6788405,28.5571429 13.6788405,29.0551587 L13.6788405,29.0561508 L13.6788405,32.5174603 C13.6788405,33.0164683 13.2770379,33.4242063 12.787463,33.4242063 L1.8763788,33.4242063 C1.38582863,33.4242063 0.985001345,33.0164683 0.985001345,32.5174603 C0.985001345,32.0184524 1.38582863,31.6107143 1.8763788,31.6107143 L11.8951103,31.6107143 L11.8951103,29.9628968 L1.8763788,29.9628968 C1.38582863,29.9628968 0.985001345,29.5541667 0.985001345,29.0561508 L0.985001345,29.0551587 L0.985001345,25.8547619 C0.985001345,25.356746 1.38582863,24.9480159 1.8763788,24.9480159" id="Fill-24" fill="#FEFEFE"></path>
                <path d="M22.0356504,25.9527778 L22.0356504,27.8376984 C22.0356504,28.3257937 22.4267252,28.7236111 22.9055724,28.7236111 C23.3844196,28.7236111 23.7754944,28.3257937 23.7754944,27.8376984 L23.7754944,25.9527778 C23.7754944,25.4656746 23.3844196,25.0668651 22.9055724,25.0668651 C22.4267252,25.0668651 22.0356504,25.4656746 22.0356504,25.9527778" id="Fill-26" fill="#FEFEFE"></path>
                <path d="M22.0356504,25.9527778 L22.0356504,27.8376984 C22.0356504,28.3257937 22.4267252,28.7236111 22.9055724,28.7236111 C23.3844196,28.7236111 23.7754944,28.3257937 23.7754944,27.8376984 L23.7754944,25.9527778 C23.7754944,25.4656746 23.3844196,25.0668651 22.9055724,25.0668651 C22.4267252,25.0668651 22.0356504,25.4656746 22.0356504,25.9527778" id="Fill-28" fill="#F1DB2E"></path>
                <path d="M22.0356504,30.6534722 L22.0356504,32.5383929 C22.0356504,33.0264881 22.4267252,33.4243056 22.9055724,33.4243056 C23.3844196,33.4243056 23.7754944,33.0264881 23.7754944,32.5383929 L23.7754944,30.6534722 C23.7754944,30.1673611 23.3844196,29.7685516 22.9055724,29.7685516 C22.4267252,29.7685516 22.0356504,30.1673611 22.0356504,30.6534722" id="Fill-30" fill="#FEFEFE"></path>
                <path d="M33.0395783,24.9480159 L43.8882466,24.9480159 C43.8970238,24.9480159 43.905801,24.9480159 43.9145783,24.9490079 C43.9233555,24.9480159 43.9311575,24.9480159 43.9399348,24.9480159 C44.4285344,24.9480159 44.8293617,25.355754 44.8293617,25.8527778 L44.8293617,25.9053571 L44.8293617,32.5194444 C44.8293617,33.0174603 44.4285344,33.4242063 43.9399348,33.4242063 C43.4503598,33.4242063 43.0505078,33.0174603 43.0505078,32.5194444 L43.0505078,26.8626984 L33.8773171,26.8626984 L33.8773171,32.5194444 C33.8773171,33.0174603 33.477465,33.4242063 32.9878901,33.4242063 C32.4983152,33.4242063 32.0984631,33.0174603 32.0984631,32.5194444 L32.0984631,25.9053571 L32.0984631,25.8527778 C32.0984631,25.355754 32.4983152,24.9480159 32.9878901,24.9480159 C32.9966673,24.9480159 33.0044693,24.9480159 33.0132466,24.9490079 C33.0220238,24.9480159 33.030801,24.9480159 33.0395783,24.9480159" id="Fill-32" fill="#FEFEFE"></path>
                <path d="M53.6878397,32.5367063 L53.6878397,26 C53.6878397,25.5119048 54.0808649,25.1130952 54.5606874,25.1130952 L65.2357614,25.1130952 L65.2581921,25.1130952 C65.2659941,25.1130952 65.2728208,25.1130952 65.2806228,25.1140873 C65.2884248,25.1140873 65.2952515,25.1150794 65.3030535,25.1150794 C65.3098803,25.1160714 65.3176823,25.1170635 65.3254843,25.1170635 C65.332311,25.1170635 65.3391377,25.1180556 65.3469397,25.1190476 L65.3683952,25.1220238 C65.375222,25.1230159 65.3830239,25.125 65.3898507,25.1259921 C65.3966774,25.1269841 65.4044794,25.1289683 65.4113062,25.1299603 C65.4181329,25.1319444 65.4259349,25.1339286 65.4317864,25.1349206 C65.4395884,25.1369048 65.4464151,25.1388889 65.4532419,25.140873 C65.4600686,25.1418651 65.4678706,25.1438492 65.4737221,25.1468254 C65.4805488,25.1488095 65.4883508,25.1507937 65.4942023,25.1527778 C65.5020043,25.1547619 65.508831,25.1577381 65.5146825,25.1587302 C65.5215093,25.1607143 65.528336,25.1636905 65.5351628,25.1656746 C65.5419895,25.1686508 65.5488162,25.171627 65.5546677,25.1736111 C65.5614945,25.1765873 65.5683212,25.1795635 65.5741727,25.1825397 C65.5809995,25.1855159 65.5878262,25.1884921 65.5936777,25.1914683 C65.6005044,25.1944444 65.6073312,25.1974206 65.6131827,25.1994048 C65.6200094,25.203373 65.6258609,25.2063492 65.6326877,25.2093254 C65.6385391,25.2132937 65.6443906,25.2162698 65.6512174,25.2202381 C65.6570689,25.2232143 65.6629204,25.2271825 65.6697471,25.2301587 C65.6755986,25.234127 65.6814501,25.2380952 65.6873016,25.2410714 C65.6941283,25.2450397 65.6990046,25.2480159 65.7058313,25.2519841 C65.7116828,25.2559524 65.7165591,25.2609127 65.7224105,25.264881 C65.7292373,25.2688492 65.7350888,25.2728175 65.739965,25.2767857 C65.7458165,25.280754 65.751668,25.2847222 65.7565443,25.2886905 C65.7623957,25.2936508 65.7682472,25.297619 65.7740987,25.3025794 C65.778975,25.3065476 65.7848265,25.3115079 65.7897027,25.3154762 C65.7955542,25.3204365 65.8004305,25.3244048 65.8062819,25.3293651 C65.8111582,25.3343254 65.8170097,25.3382937 65.8218859,25.343254 C65.8267622,25.3482143 65.8326137,25.3531746 65.8374899,25.3581349 L65.8521186,25.3730159 L65.8667474,25.3878968 C65.8716236,25.3938492 65.8764999,25.3988095 65.8804009,25.4047619 C65.8852771,25.4087302 65.8901533,25.4136905 65.8950296,25.4196429 C65.8989306,25.4255952 65.9038068,25.4305556 65.9086831,25.4365079 C65.9135593,25.4414683 65.9174603,25.4474206 65.9213613,25.452381 C65.9262376,25.4583333 65.9301386,25.4642857 65.9350148,25.469246 C65.9389158,25.4751984 65.9428168,25.4811508 65.9467178,25.4871032 C65.9506188,25.4920635 65.955495,25.4980159 65.959396,25.5039683 C65.9623218,25.5099206 65.9662228,25.5168651 65.9701238,25.5228175 C65.9740248,25.5287698 65.9779257,25.5337302 65.9818267,25.5406746 C65.9847525,25.546627 65.9886535,25.5525794 65.9925545,25.5595238 C65.9964555,25.5654762 65.9993812,25.5714286 66.002307,25.577381 C66.006208,25.5833333 66.0091337,25.5902778 66.0130347,25.5962302 C66.0159605,25.6031746 66.0188862,25.610119 66.0218119,25.6150794 C66.0247377,25.6220238 66.0276634,25.6289683 66.0305892,25.6349206 C66.0344902,25.6418651 66.0374159,25.6488095 66.0393664,25.6547619 C66.0422922,25.6617063 66.0452179,25.6686508 66.0471684,25.6755952 C66.0500942,25.6815476 66.0530199,25.6884921 66.0549704,25.6954365 C66.0578962,25.7013889 66.0598467,25.7083333 66.0617971,25.7162698 C66.0647229,25.7232143 66.0666734,25.7301587 66.0686239,25.7371032 C66.0715496,25.7430556 66.0735001,25.75 66.0754506,25.7579365 L66.0813021,25.7787698 C66.0822774,25.7857143 66.0842279,25.7926587 66.0861784,25.7996032 C66.0871536,25.8075397 66.0891041,25.8144841 66.0900794,25.8214286 C66.0920299,25.828373 66.0930051,25.8353175 66.0949556,25.843254 C66.0959309,25.8501984 66.0969061,25.8581349 66.0988566,25.8650794 C66.0998319,25.8720238 66.1008071,25.8799603 66.1017824,25.8869048 C66.1017824,25.8948413 66.1027576,25.9027778 66.1037328,25.9087302 C66.1047081,25.9166667 66.1047081,25.9246032 66.1056833,25.9315476 C66.1066586,25.9394841 66.1066586,25.9464286 66.1066586,25.9543651 C66.1076338,25.9613095 66.1076338,25.969246 66.1076338,25.9771825 C66.1086091,25.985119 66.1086091,25.9920635 66.1086091,26 L66.1086091,29.2678571 C66.1086091,29.7559524 65.7155838,30.155754 65.2357614,30.155754 L55.4325599,30.155754 L55.4325599,31.6488095 L65.2357614,31.6488095 C65.7155838,31.6488095 66.1086091,32.0486111 66.1086091,32.5367063 C66.1086091,33.0248016 65.7155838,33.4246032 65.2357614,33.4246032 L54.5606874,33.4246032 C54.5528854,33.4246032 54.5450834,33.4246032 54.5382567,33.4236111 L54.5158259,33.4236111 C54.5080239,33.422619 54.500222,33.422619 54.4933952,33.421627 C54.4855932,33.421627 54.4787665,33.4206349 54.4719397,33.4196429 C54.4641377,33.4186508 54.457311,33.4176587 54.449509,33.4166667 C54.441707,33.4156746 54.4348803,33.4146825 54.4280535,33.4136905 C54.4202515,33.4126984 54.4134248,33.4117063 54.4065981,33.4097222 C54.3987961,33.4087302 54.3919693,33.4077381 54.3851426,33.405754 C54.3783158,33.4047619 54.3705139,33.4027778 54.3636871,33.4007937 C54.3568604,33.3988095 54.3500336,33.3978175 54.3432069,33.3958333 C54.3363801,33.3938492 54.3285782,33.3918651 54.3217514,33.389881 C54.3158999,33.3878968 54.3080979,33.3859127 54.3012712,33.3839286 C54.2954197,33.3819444 54.2876177,33.3799603 54.280791,33.3769841 C54.2749395,33.375 54.2681127,33.3730159 54.261286,33.3700397 C54.2544592,33.3670635 54.2476325,33.3650794 54.2408058,33.3621032 C54.2349543,33.359127 54.2281275,33.3561508 54.2213008,33.3541667 C54.2154493,33.3511905 54.2086225,33.3482143 54.2017958,33.3452381 C54.1959443,33.3422619 54.1891176,33.3392857 54.1832661,33.3363095 C54.1764393,33.3333333 54.1705878,33.3303571 54.1637611,33.3263889 C54.1579096,33.3234127 54.1520581,33.3194444 54.1452314,33.3164683 C54.1393799,33.3125 54.1335284,33.3095238 54.1267016,33.3055556 C54.1208501,33.3015873 54.1149987,33.2986111 54.1091472,33.2956349 C54.1023204,33.2916667 54.0964689,33.2876984 54.0915927,33.2837302 C54.0847659,33.2797619 54.0789144,33.2757937 54.0740382,33.2718254 C54.0681867,33.2678571 54.06136,33.2628968 54.0555085,33.2599206 C54.0506322,33.2559524 54.0447807,33.2519841 54.0389292,33.2470238 C54.0330778,33.2430556 54.0282015,33.2380952 54.02235,33.234127 C54.0164985,33.2291667 54.0116223,33.2251984 54.006746,33.2202381 C54.0008945,33.2162698 53.995043,33.2123016 53.9901668,33.2073413 L53.9745628,33.1924603 C53.9696866,33.1875 53.9638351,33.1825397 53.9589588,33.1775794 C53.9540826,33.1736111 53.9492063,33.1686508 53.9443301,33.1636905 C53.9394539,33.1587302 53.9345776,33.1527778 53.9297014,33.1478175 C53.9248251,33.1428571 53.9199489,33.1369048 53.9150726,33.1329365 C53.9111716,33.1269841 53.9062954,33.1220238 53.9014192,33.1160714 C53.8965429,33.1111111 53.8916667,33.1051587 53.8877657,33.1001984 C53.8838647,33.094246 53.8789884,33.0892857 53.8741122,33.0833333 C53.8702112,33.078373 53.8663102,33.0724206 53.861434,33.0664683 C53.857533,33.0605159 53.853632,33.0545635 53.849731,33.0496032 C53.84583,33.0436508 53.8409537,33.0376984 53.8370527,33.031746 L53.826325,33.0138889 C53.822424,33.0079365 53.818523,33.0019841 53.814622,32.9960317 C53.810721,32.9900794 53.8077953,32.9831349 53.8038943,32.9771825 C53.7999933,32.9702381 53.7970675,32.9652778 53.7931665,32.9593254 C53.7902408,32.952381 53.787315,32.9464286 53.783414,32.9394841 C53.7804883,32.9325397 53.7775626,32.9275794 53.7746368,32.9206349 C53.7707358,32.9136905 53.7687853,32.9077381 53.7658596,32.9007937 C53.7619586,32.8938492 53.7590328,32.8878968 53.7570823,32.8809524 C53.7541566,32.875 53.7512308,32.8680556 53.7483051,32.8611111 C53.7463546,32.8541667 53.7434288,32.8472222 53.7414783,32.8412698 L53.7336764,32.8204365 C53.7317259,32.8134921 53.7288001,32.8065476 53.7278249,32.8005952 C53.7248991,32.7926587 53.7229486,32.7857143 53.7209981,32.7787698 C53.7190476,32.7718254 53.7170971,32.7638889 53.7151466,32.7579365 C53.7131961,32.7509921 53.7122209,32.7430556 53.7102704,32.7361111 C53.7083199,32.7291667 53.7073446,32.7222222 53.7063694,32.7152778 C53.7044189,32.7073413 53.7034436,32.7003968 53.7014931,32.6924603 C53.7005179,32.6855159 53.6995426,32.6785714 53.6975921,32.671627 C53.6966169,32.6636905 53.6956416,32.656746 53.6946664,32.6488095 C53.6936911,32.640873 53.6927159,32.6349206 53.6927159,32.6269841 C53.6917407,32.6190476 53.6907654,32.6121032 53.6907654,32.6041667 C53.6897902,32.5972222 53.6897902,32.5902778 53.6888149,32.5823413 C53.6888149,32.5744048 53.6878397,32.5664683 53.6878397,32.5585317 L53.6878397,32.5367063 L53.6878397,32.5367063 Z M55.4325599,28.3809524 L64.3638889,28.3809524 L64.3638889,26.8869048 L55.4325599,26.8869048 L55.4325599,28.3809524 Z" id="Fill-34" fill="#FEFEFE"></path>
                <path d="M85.4595944,32.5367063 L85.4595944,26.9890873 L81.8345944,26.9890873 L81.8345944,32.5367063 C81.8345944,33.0248016 81.4415691,33.4246032 80.962722,33.4246032 C80.4819243,33.4246032 80.0898742,33.0248016 80.0898742,32.5367063 L80.0898742,26.9890873 L76.4648742,26.9890873 L76.4648742,32.5367063 C76.4648742,33.0248016 76.0728242,33.4246032 75.5920265,33.4246032 C75.1131793,33.4246032 74.720154,33.0248016 74.720154,32.5367063 L74.720154,26.0505952 L74.720154,26 C74.720154,25.5119048 75.1131793,25.1130952 75.5920265,25.1130952 L75.617383,25.1130952 L75.6427394,25.1130952 L86.2817292,25.1130952 L86.3070857,25.1130952 L86.3324422,25.1130952 C86.8122646,25.1130952 87.2043146,25.5119048 87.2043146,26 L87.2043146,26.0505952 L87.2043146,32.5367063 C87.2043146,33.0248016 86.8122646,33.4246032 86.3324422,33.4246032 C85.8526197,33.4246032 85.4595944,33.0248016 85.4595944,32.5367063" id="Fill-36" fill="#FEFEFE"></path>
                <path d="M108.993715,26.0000992 L108.993715,32.5368056 C108.993715,33.0249008 108.601665,33.4237103 108.120867,33.4237103 L97.4448177,33.4237103 C97.4370157,33.4237103 97.4311642,33.4237103 97.4233623,33.4227183 L97.3999563,33.4227183 C97.3931295,33.4217262 97.3863028,33.4217262 97.3785008,33.4207341 C97.3706988,33.4197421 97.3638721,33.4197421 97.3560701,33.4197421 C97.3492433,33.41875 97.3424166,33.4177579 97.3346146,33.4167659 C97.3268126,33.4157738 97.3199859,33.4147817 97.3121839,33.4137897 C97.3063324,33.4127976 97.2985304,33.4118056 97.2917037,33.4098214 C97.2839017,33.4088294 97.2770749,33.4078373 97.2702482,33.4058532 C97.2634214,33.4048611 97.2565947,33.402877 97.2487927,33.4008929 C97.241966,33.3989087 97.234164,33.3979167 97.2283125,33.3959325 C97.2214857,33.3939484 97.214659,33.3919643 97.206857,33.3899802 C97.2000303,33.387996 97.1932035,33.3860119 97.187352,33.3830357 C97.1805253,33.3810516 97.1727233,33.3790675 97.1658966,33.3770833 C97.1590698,33.3750992 97.1522431,33.3731151 97.1463916,33.3701389 C97.1395648,33.3671627 97.1327381,33.3651786 97.1259114,33.3622024 C97.1190846,33.3592262 97.1132331,33.35625 97.1073816,33.3542659 L97.0869014,33.3453373 C97.0810499,33.341369 97.0742232,33.3383929 97.0673964,33.3364087 C97.0625202,33.3334325 97.0556934,33.3304563 97.0488667,33.3264881 C97.0430152,33.3235119 97.0361885,33.3195437 97.030337,33.3165675 C97.0244855,33.3125992 97.018634,33.309623 97.0118072,33.3056548 C97.0059557,33.3016865 97.0001043,33.2977183 96.9932775,33.2957341 L96.9766983,33.2838294 C96.9698715,33.2798611 96.96402,33.2758929 96.9581685,33.2719246 C96.9523171,33.2679563 96.9464656,33.262996 96.9415893,33.2590278 C96.9357378,33.2550595 96.9298863,33.2520833 96.9240348,33.247123 C96.9181833,33.2431548 96.9133071,33.2381944 96.9074556,33.2342262 C96.9025794,33.2292659 96.8967279,33.2252976 96.8918516,33.2203373 C96.8860001,33.215377 96.8801486,33.2124008 96.8752724,33.2074405 C96.8694209,33.2024802 96.8645447,33.1975198 96.8596684,33.1925595 C96.8547922,33.1875992 96.8499159,33.1826389 96.8440644,33.1776786 L96.8294357,33.1637897 C96.8235842,33.1588294 96.8196832,33.152877 96.814807,33.1479167 C96.8099307,33.1429563 96.8050545,33.137004 96.8001782,33.1320437 C96.795302,33.1270833 96.7904257,33.122123 96.7865248,33.1161706 C96.7826238,33.1112103 96.7777475,33.1052579 96.7728713,33.1002976 C96.7689703,33.0943452 96.764094,33.0893849 96.7592178,33.0834325 C96.7553168,33.0784722 96.7504405,33.0725198 96.7465395,33.0665675 L96.7348366,33.0487103 C96.7309356,33.04375 96.7270346,33.0377976 96.7221583,33.0318452 L96.7104553,33.0139881 C96.7065543,33.0070437 96.7026533,33.0020833 96.7007029,32.996131 C96.6968019,32.9901786 96.6929009,32.9832341 96.6889999,32.9772817 C96.6860741,32.9703373 96.6821731,32.965377 96.6782721,32.9594246 C96.6753464,32.9524802 96.6714454,32.9465278 96.6685196,32.9395833 C96.6655939,32.9326389 96.6616929,32.9266865 96.6597424,32.9207341 C96.6568167,32.9137897 96.6538909,32.9078373 96.6509652,32.9008929 L96.6421879,32.8810516 C96.6392622,32.8750992 96.6363364,32.8681548 96.6334107,32.8612103 C96.6304849,32.8542659 96.6285344,32.8473214 96.6256087,32.841369 C96.6236582,32.8344246 96.6207324,32.8274802 96.6197572,32.8205357 C96.6168315,32.8135913 96.614881,32.8066468 96.6129305,32.7997024 C96.61098,32.7927579 96.6080542,32.7858135 96.6061037,32.778869 C96.6041532,32.7719246 96.6022027,32.7639881 96.6002522,32.7580357 C96.599277,32.7510913 96.5973265,32.7431548 96.595376,32.7362103 C96.5934255,32.7292659 96.5924502,32.7213294 96.5904997,32.715377 C96.5895245,32.7074405 96.587574,32.700496 96.5865987,32.6925595 C96.5846482,32.6856151 96.583673,32.6776786 96.5826977,32.6717262 C96.5817225,32.6637897 96.5807472,32.6568452 96.579772,32.6489087 C96.579772,32.6409722 96.5787967,32.6340278 96.5778215,32.6270833 C96.5768462,32.6191468 96.5768462,32.6122024 96.575871,32.6042659 C96.575871,32.5963294 96.5748957,32.590377 96.5748957,32.5824405 C96.5739205,32.574504 96.5739205,32.5665675 96.5739205,32.558631 C96.5739205,32.5516865 96.5729453,32.5447421 96.5729453,32.5368056 L96.5729453,29.2679563 C96.5729453,28.7798611 96.9659705,28.3800595 97.4448177,28.3800595 L107.248994,28.3800595 L107.248994,26.887004 L97.4448177,26.887004 C96.9659705,26.887004 96.5729453,26.4872024 96.5729453,26.0000992 C96.5729453,25.512004 96.9659705,25.1122024 97.4448177,25.1122024 L108.120867,25.1122024 L108.143298,25.1122024 C108.1511,25.1122024 108.158902,25.1122024 108.165728,25.1131944 C108.17353,25.1131944 108.180357,25.1141865 108.188159,25.1141865 C108.195961,25.1151786 108.201813,25.1161706 108.209615,25.1161706 C108.217417,25.1171627 108.224243,25.1181548 108.232045,25.1191468 C108.239847,25.1201389 108.245699,25.121131 108.253501,25.122123 C108.260328,25.1231151 108.26813,25.1250992 108.274956,25.1260913 C108.282758,25.1270833 108.28861,25.1290675 108.296412,25.1300595 C108.303238,25.1320437 108.31104,25.1340278 108.317867,25.1350198 C108.323719,25.137004 108.331521,25.1389881 108.338347,25.1409722 C108.345174,25.1419643 108.352976,25.1439484 108.359803,25.1469246 L108.379308,25.152877 C108.38711,25.153869 108.393937,25.1568452 108.400763,25.1588294 C108.406615,25.1608135 108.413442,25.1637897 108.420268,25.1657738 C108.427095,25.16875 108.433922,25.1717262 108.440749,25.1737103 C108.4466,25.1766865 108.453427,25.1796627 108.459278,25.1826389 L108.479759,25.1915675 C108.48561,25.1945437 108.491462,25.1965278 108.498288,25.199504 C108.505115,25.2034722 108.510967,25.2064484 108.517793,25.2094246 C108.523645,25.2133929 108.529496,25.216369 108.535348,25.2203373 C108.542174,25.2233135 108.548026,25.2272817 108.554853,25.2302579 C108.560704,25.2342262 108.567531,25.2372024 108.572407,25.2411706 C108.578259,25.2451389 108.58411,25.2481151 108.590937,25.2520833 C108.596788,25.2560516 108.60264,25.2610119 108.607516,25.2649802 L108.625071,25.2768849 C108.630922,25.2798611 108.636774,25.2848214 108.642625,25.2887897 C108.648477,25.29375 108.653353,25.2977183 108.658229,25.3026786 C108.664081,25.3066468 108.669932,25.3116071 108.675784,25.3155754 C108.68066,25.3195437 108.686511,25.324504 108.690412,25.3294643 C108.696264,25.3344246 108.70114,25.3383929 108.706992,25.3433532 C108.711868,25.3483135 108.717719,25.3532738 108.722596,25.3582341 L108.737224,25.3731151 L108.751853,25.387996 C108.756729,25.3939484 108.761605,25.3989087 108.766482,25.403869 C108.770383,25.4088294 108.775259,25.4137897 108.780135,25.4197421 C108.784036,25.4256944 108.788912,25.4306548 108.793789,25.4366071 C108.798665,25.4415675 108.802566,25.4465278 108.807442,25.4524802 C108.811343,25.4584325 108.815244,25.4643849 108.819145,25.4693452 C108.824021,25.4752976 108.827922,25.48125 108.831823,25.4862103 C108.835724,25.4921627 108.840601,25.4981151 108.844502,25.5040675 C108.848403,25.5100198 108.851328,25.5169643 108.855229,25.5229167 C108.85913,25.527877 108.863031,25.5338294 108.866932,25.5407738 C108.870833,25.5467262 108.873759,25.5526786 108.87766,25.559623 C108.881561,25.5655754 108.884487,25.5705357 108.888388,25.5774802 C108.891314,25.5834325 108.894239,25.590377 108.897165,25.5963294 C108.901066,25.6032738 108.903992,25.6092262 108.906918,25.6151786 C108.909843,25.622123 108.912769,25.6290675 108.91667,25.6350198 L108.925447,25.6548611 C108.927398,25.6618056 108.930324,25.66875 108.933249,25.6756944 C108.9352,25.6816468 108.93715,25.6885913 108.940076,25.6945437 C108.943002,25.7014881 108.944952,25.7084325 108.946903,25.716369 C108.949828,25.7233135 108.951779,25.7302579 108.953729,25.7362103 C108.956655,25.7431548 108.958606,25.7500992 108.960556,25.7580357 L108.966408,25.777877 C108.968358,25.7858135 108.969333,25.7927579 108.971284,25.7997024 C108.973234,25.8076389 108.97421,25.8145833 108.975185,25.8215278 C108.977135,25.8284722 108.978111,25.8354167 108.979086,25.8433532 C108.981036,25.8502976 108.982012,25.8572421 108.982987,25.8651786 C108.983962,25.872123 108.984937,25.8800595 108.985913,25.887004 C108.986888,25.8949405 108.987863,25.9018849 108.988838,25.9088294 C108.989814,25.9167659 108.989814,25.9247024 108.990789,25.9316468 C108.991764,25.9385913 108.991764,25.9465278 108.992739,25.9544643 L108.992739,25.9772817 C108.993715,25.9842262 108.993715,25.9921627 108.993715,26.0000992 L108.993715,26.0000992 Z M98.3176655,31.6489087 L107.248994,31.6489087 L107.248994,30.1548611 L98.3176655,30.1548611 L98.3176655,31.6489087 Z" id="Fill-38" fill="#FEFEFE"></path>
                <path d="M117.503346,23.3814484 L117.503346,32.5381944 C117.503346,33.0262897 117.894421,33.4241071 118.373268,33.4241071 C118.85114,33.4241071 119.242215,33.0262897 119.242215,32.5381944 L119.242215,23.3814484 C119.242215,22.8953373 118.85114,22.4965278 118.373268,22.4965278 C117.894421,22.4965278 117.503346,22.8953373 117.503346,23.3814484" id="Fill-40" fill="#FEFEFE"></path>
                <path d="M140.009262,26.0000992 L140.009262,32.5368056 C140.009262,33.0249008 139.617211,33.4237103 139.136414,33.4237103 L128.46134,33.4237103 C128.453538,33.4237103 128.446711,33.4237103 128.438909,33.4227183 L128.416478,33.4227183 C128.408676,33.4217262 128.40185,33.4217262 128.395023,33.4207341 C128.387221,33.4197421 128.379419,33.4197421 128.371617,33.4197421 C128.365765,33.41875 128.357963,33.4177579 128.350161,33.4167659 C128.343335,33.4157738 128.335533,33.4147817 128.328706,33.4137897 C128.321879,33.4127976 128.315052,33.4118056 128.30725,33.4098214 C128.300424,33.4088294 128.292622,33.4078373 128.285795,33.4058532 C128.278968,33.4048611 128.272142,33.402877 128.265315,33.4008929 C128.257513,33.3989087 128.250686,33.3979167 128.243859,33.3959325 L128.223379,33.3899802 C128.215577,33.387996 128.20875,33.3860119 128.202899,33.3830357 L128.182419,33.3770833 C128.175592,33.3750992 128.168765,33.3731151 128.162914,33.3701389 C128.156087,33.3671627 128.14926,33.3651786 128.142433,33.3622024 C128.135607,33.3592262 128.12878,33.35625 128.122928,33.3542659 C128.116102,33.3512897 128.109275,33.3483135 128.103423,33.3453373 C128.096597,33.341369 128.08977,33.3383929 128.083918,33.3364087 C128.078067,33.3334325 128.07124,33.3304563 128.065389,33.3264881 C128.058562,33.3235119 128.052711,33.3195437 128.045884,33.3165675 C128.041008,33.3125992 128.034181,33.309623 128.028329,33.3056548 C128.021503,33.3016865 128.015651,33.2977183 128.0098,33.2957341 C128.002973,33.2917659 127.998097,33.2877976 127.992245,33.2838294 L127.974691,33.2719246 C127.967864,33.2679563 127.962012,33.262996 127.957136,33.2590278 C127.951285,33.2550595 127.946408,33.2520833 127.940557,33.247123 C127.934705,33.2431548 127.928854,33.2381944 127.923002,33.2342262 C127.918126,33.2292659 127.91325,33.2252976 127.907398,33.2203373 C127.901547,33.215377 127.896671,33.2124008 127.890819,33.2074405 C127.885943,33.2024802 127.880091,33.1975198 127.87619,33.1925595 C127.870339,33.1875992 127.865463,33.1826389 127.860586,33.1776786 C127.854735,33.1727183 127.849859,33.16875 127.844983,33.1637897 C127.840106,33.1588294 127.836205,33.152877 127.830354,33.1479167 C127.825478,33.1429563 127.820601,33.137004 127.8167,33.1320437 L127.815725,33.1320437 C127.811824,33.1270833 127.806948,33.122123 127.802072,33.1161706 C127.798171,33.1112103 127.793294,33.1052579 127.789393,33.1002976 C127.784517,33.0943452 127.779641,33.0893849 127.77574,33.0834325 C127.770864,33.0784722 127.766963,33.0725198 127.762086,33.0665675 C127.758185,33.0606151 127.75526,33.0546627 127.750383,33.0487103 L127.73868,33.0318452 L127.726977,33.0139881 C127.723076,33.0070437 127.719175,33.0020833 127.71625,32.996131 C127.712349,32.9901786 127.708448,32.9832341 127.705522,32.9772817 C127.701621,32.9703373 127.69772,32.965377 127.694794,32.9594246 C127.690893,32.9524802 127.687967,32.9465278 127.684066,32.9395833 C127.681141,32.9326389 127.678215,32.9266865 127.675289,32.9207341 C127.672363,32.9137897 127.669438,32.9078373 127.666512,32.9008929 L127.657735,32.8810516 C127.654809,32.8750992 127.651883,32.8681548 127.649933,32.8612103 C127.647007,32.8542659 127.644081,32.8473214 127.642131,32.841369 C127.639205,32.8344246 127.637255,32.8274802 127.635304,32.8205357 C127.633354,32.8135913 127.630428,32.8066468 127.628477,32.7997024 L127.622626,32.778869 C127.620675,32.7719246 127.618725,32.7639881 127.616774,32.7580357 C127.614824,32.7510913 127.612873,32.7431548 127.610923,32.7362103 C127.609948,32.7292659 127.607997,32.7213294 127.606047,32.715377 C127.605071,32.7074405 127.604096,32.700496 127.602146,32.6925595 C127.60117,32.6856151 127.600195,32.6776786 127.598245,32.6717262 C127.597269,32.6637897 127.596294,32.6568452 127.595319,32.6489087 C127.595319,32.6409722 127.594344,32.6340278 127.594344,32.6270833 C127.593368,32.6191468 127.592393,32.6122024 127.591418,32.6042659 C127.591418,32.5963294 127.590443,32.590377 127.590443,32.5824405 C127.590443,32.574504 127.589467,32.5665675 127.589467,32.558631 L127.589467,32.5368056 L127.589467,29.2679563 C127.589467,28.7798611 127.981517,28.3800595 128.46134,28.3800595 L138.264541,28.3800595 L138.264541,26.887004 L128.46134,26.887004 C127.981517,26.887004 127.589467,26.4872024 127.589467,26.0000992 C127.589467,25.512004 127.981517,25.1122024 128.46134,25.1122024 L139.136414,25.1122024 L139.15982,25.1122024 C139.167622,25.1122024 139.174448,25.1122024 139.181275,25.1131944 C139.189077,25.1131944 139.196879,25.1141865 139.203706,25.1141865 C139.211508,25.1151786 139.218335,25.1161706 139.226137,25.1161706 C139.232963,25.1171627 139.240765,25.1181548 139.247592,25.1191468 C139.255394,25.1201389 139.262221,25.121131 139.269048,25.122123 C139.27685,25.1231151 139.283676,25.1250992 139.291478,25.1260913 C139.298305,25.1270833 139.305132,25.1290675 139.311959,25.1300595 C139.319761,25.1320437 139.326587,25.1340278 139.333414,25.1350198 C139.340241,25.137004 139.347068,25.1389881 139.353894,25.1409722 C139.361696,25.1419643 139.368523,25.1439484 139.37535,25.1469246 C139.381201,25.1489087 139.389003,25.1508929 139.39583,25.152877 C139.402657,25.153869 139.409483,25.1568452 139.41631,25.1588294 C139.422162,25.1608135 139.428988,25.1637897 139.435815,25.1657738 C139.442642,25.16875 139.449469,25.1717262 139.456295,25.1737103 L139.4758,25.1826389 C139.482627,25.1856151 139.488479,25.1885913 139.495305,25.1915675 C139.501157,25.1945437 139.507984,25.1965278 139.513835,25.199504 C139.520662,25.2034722 139.527489,25.2064484 139.53334,25.2094246 C139.540167,25.2133929 139.545043,25.216369 139.55187,25.2203373 C139.557721,25.2233135 139.564548,25.2272817 139.5704,25.2302579 C139.577226,25.2342262 139.583078,25.2372024 139.587954,25.2411706 C139.593805,25.2451389 139.600632,25.2481151 139.606484,25.2520833 C139.612335,25.2560516 139.618187,25.2610119 139.623063,25.2649802 C139.628914,25.2689484 139.635741,25.2729167 139.641593,25.2768849 C139.646469,25.2798611 139.65232,25.2848214 139.658172,25.2887897 C139.664023,25.29375 139.6689,25.2977183 139.674751,25.3026786 C139.680603,25.3066468 139.685479,25.3116071 139.69133,25.3155754 C139.697182,25.3195437 139.702058,25.324504 139.706934,25.3294643 C139.711811,25.3344246 139.717662,25.3383929 139.722538,25.3433532 C139.72839,25.3483135 139.733266,25.3532738 139.738142,25.3582341 C139.743994,25.3622024 139.747895,25.3671627 139.752771,25.3731151 L139.7674,25.387996 C139.773251,25.3939484 139.777152,25.3989087 139.782029,25.403869 C139.78593,25.4088294 139.790806,25.4137897 139.795682,25.4197421 C139.800558,25.4256944 139.805434,25.4306548 139.809335,25.4366071 C139.814212,25.4415675 139.819088,25.4465278 139.822989,25.4524802 C139.82689,25.4584325 139.830791,25.4643849 139.835667,25.4693452 C139.839568,25.4752976 139.843469,25.48125 139.848345,25.4862103 L139.860048,25.5040675 C139.863949,25.5100198 139.866875,25.5169643 139.870776,25.5229167 C139.874677,25.527877 139.878578,25.5338294 139.882479,25.5407738 C139.88638,25.5467262 139.890281,25.5526786 139.893207,25.559623 C139.897108,25.5655754 139.901009,25.5705357 139.903935,25.5774802 C139.907836,25.5834325 139.909786,25.590377 139.913687,25.5963294 C139.916613,25.6032738 139.919539,25.6092262 139.922464,25.6151786 C139.926365,25.622123 139.929291,25.6290675 139.932217,25.6350198 L139.940994,25.6548611 C139.94392,25.6618056 139.946846,25.66875 139.948796,25.6756944 C139.950747,25.6816468 139.953672,25.6885913 139.955623,25.6945437 C139.958549,25.7014881 139.960499,25.7084325 139.963425,25.716369 C139.965375,25.7233135 139.968301,25.7302579 139.970252,25.7362103 C139.972202,25.7431548 139.974153,25.7500992 139.976103,25.7580357 L139.981955,25.777877 C139.983905,25.7858135 139.985856,25.7927579 139.987806,25.7997024 C139.988781,25.8076389 139.989757,25.8145833 139.990732,25.8215278 C139.992682,25.8284722 139.993658,25.8354167 139.995608,25.8433532 C139.996583,25.8502976 139.997559,25.8572421 139.999509,25.8651786 C140.000484,25.872123 140.00146,25.8800595 140.002435,25.887004 C140.00341,25.8949405 140.004385,25.9018849 140.004385,25.9088294 C140.005361,25.9167659 140.006336,25.9247024 140.006336,25.9316468 C140.007311,25.9385913 140.008286,25.9465278 140.008286,25.9544643 C140.008286,25.9614087 140.009262,25.9693452 140.009262,25.9772817 L140.009262,26.0000992 Z M129.334188,31.6489087 L138.264541,31.6489087 L138.264541,30.1548611 L129.334188,30.1548611 L129.334188,31.6489087 Z" id="Fill-42" fill="#FEFEFE"></path>
                <path d="M149.916034,25.1126984 L149.916034,25.1126984 L160.591108,25.1126984 C161.070931,25.1126984 161.463956,25.5115079 161.463956,26.0005952 C161.463956,26.4876984 161.070931,26.8865079 160.591108,26.8865079 L150.788882,26.8865079 L150.788882,32.5363095 C150.788882,33.0253968 150.394882,33.4242063 149.916034,33.4242063 C149.436212,33.4242063 149.043187,33.0253968 149.043187,32.5363095 L149.043187,26.0005952 C149.043187,25.5115079 149.436212,25.1126984 149.916034,25.1126984" id="Fill-44" fill="#FEFEFE"></path>
                <path d="M170.043903,25.8907738 L170.043903,32.5385913 C170.043903,33.0256944 170.434978,33.424504 170.9148,33.424504 C171.392672,33.424504 171.783747,33.0256944 171.783747,32.5385913 L171.783747,25.8907738 C171.783747,25.4036706 171.392672,25.0048611 170.9148,25.0048611 C170.434978,25.0048611 170.043903,25.4036706 170.043903,25.8907738" id="Fill-46" fill="#FEFEFE"></path>
            </g>
        </g>
    </g>
</svg>